# xmcd CD database file
#
# Track frame offsets:
#	150
#	17337
#	28852
#	38405
#	49447
#	60182
#	70960
#	83715
#	95752
#	109337
#
# Disc length: 1624 seconds
#
# Revision: 3
# Processed by: cddbd v1.4PL0 Copyright (c) Steve Scherf et al.
# Submitted via: CDex 1.40Release
#
DISCID=7a06560a
DTITLE=Roy Orbison - Dream Baby
DYEAR=1900
DGENRE=Blues
TTITLE0=Born to Love
TTITLE1=Dream Baby
TTITLE2=Uptown
TTITLE3=Only the lonely
TTITLE4=Falling
TTITLE5=The Crowd
TTITLE6=In Dreams
TTITLE7=Leah
TTITLE8=The Great Pretender
TTITLE9=Its Over
EXTD=ID3G: 0
EXTT0=
EXTT1=
EXTT2=
EXTT3=
EXTT4=
EXTT5=
EXTT6=
EXTT7=
EXTT8=
EXTT9=
PLAYORDER=
